<?xml version="1.0" encoding="UTF-8" standalone="no"?>
<!-- Created with Inkscape (http://www.inkscape.org/) -->

<svg
   version="1.1"
   id="svg1"
   width="601.42285"
   height="571.21368"
   viewBox="0 0 601.42285 571.21368"
   sodipodi:docname="spacegom_app_logo.png"
   xmlns:inkscape="http://www.inkscape.org/namespaces/inkscape"
   xmlns:sodipodi="http://sodipodi.sourceforge.net/DTD/sodipodi-0.dtd"
   xmlns="http://www.w3.org/2000/svg"
   xmlns:svg="http://www.w3.org/2000/svg">
  <defs
     id="defs1" />
  <sodipodi:namedview
     id="namedview1"
     pagecolor="#ffffff"
     bordercolor="#000000"
     borderopacity="0.25"
     inkscape:showpageshadow="2"
     inkscape:pageopacity="0.0"
     inkscape:pagecheckerboard="0"
     inkscape:deskcolor="#d1d1d1">
    <inkscape:page
       x="0"
       y="0"
       width="601.42285"
       height="571.21368"
       id="page2"
       margin="0"
       bleed="0" />
  </sodipodi:namedview>
  <g
     inkscape:groupmode="layer"
     inkscape:label="Image"
     id="g1"
     transform="translate(-200.88322,-200.43031)">
    <path
       style="fill:#000000"
       d="m 568.8061,770.30748 c -6.56552,-1.43253 -15.5,-5.38641 -15.5,-6.8594 0,-0.96829 5.91727,-11.67246 6.45255,-11.67246 0.16817,0 2.93874,1.20541 6.15681,2.6787 7.73696,3.54209 19.22949,4.31252 24.35662,1.63281 4.11321,-2.14979 6.67669,-6.22469 7.61762,-12.10896 l 0.68556,-4.28726 -5.2984,3.29235 c -4.87967,3.03217 -5.93743,3.28848 -13.38458,3.24332 -12.80506,-0.0777 -21.8581,-5.33541 -27.01893,-15.69185 -3.52829,-7.08036 -3.61507,-17.96697 -0.20166,-25.29721 7.17398,-15.40599 28.15172,-21.38625 42.01591,-11.97775 l 3.6185,2.45558 v -2.96987 -2.96986 h 8.55406 8.55406 l -0.30406,30.25 c -0.29283,29.13295 -0.38913,30.43464 -2.60767,35.25 -2.73638,5.9393 -6.40462,10.02429 -11.19639,12.46838 -7.84206,3.99991 -21.11748,5.04703 -32.5,2.56348 z m 24.4986,-42.03052 c 8.21469,-7.87017 4.73698,-21.61055 -6.21614,-24.55992 -13.51565,-3.63938 -24.64656,10.45989 -17.21358,21.80405 2.97894,4.54644 7.33718,6.39652 14.16377,6.01253 5.25829,-0.29577 6.70686,-0.80489 9.26595,-3.25666 z m -317.9986,1.99866 v -40.5 h 8.5 8.5 v 2.96986 2.96987 l 3.6185,-2.45558 c 13.89458,-9.42912 34.33065,-3.15536 41.48747,12.73642 3.34572,7.4292 3.34715,21.10247 0.003,27.98382 -2.59116,5.33177 -9.62921,12.27941 -14.50144,14.31516 -8.52912,3.56369 -20.61428,2.40932 -26.94987,-2.57425 l -2.65766,-2.09046 v 13.57258 13.57258 h -9 -9 z m 41.63657,2.41709 c 5.5862,-5.15123 7.02257,-14.74458 3.30014,-22.04116 -2.49797,-4.89642 -9.2412,-8.41931 -14.28909,-7.4651 -8.36209,1.58068 -12.65062,7.28127 -12.64388,16.80705 0.004,6.22186 2.40321,10.81154 7.23712,13.84693 4.5158,2.83563 12.69706,2.26293 16.39571,-1.14772 z m -98.13657,16.65937 c -6.34081,-1.4672 -13.80145,-4.46383 -16.7926,-6.74489 -1.70141,-1.2975 -1.6371,-1.70999 1.26431,-8.1089 l 3.0569,-6.74186 4.7357,2.39807 c 14.76783,7.47817 32.43197,7.49546 35.26862,0.0345 0.78141,-2.05527 0.66069,-3.23205 -0.51578,-5.02756 -2.11375,-3.22599 -5.45713,-4.72452 -16.51715,-7.40312 -20.61236,-4.99206 -27.0308,-10.5118 -26.97804,-23.20059 0.0398,-9.57123 4.92224,-16.62694 14.47804,-20.92252 6.20174,-2.78783 21.91702,-3.75107 30.41223,-1.86405 4.5538,1.01152 12.3031,4.10672 13.9482,5.57114 0.19824,0.17646 -0.87604,3.47242 -2.3873,7.32435 l -2.74773,7.0035 -4.6127,-2.33035 c -9.23447,-4.66528 -20.40798,-5.47861 -27.24152,-1.98293 -4.63644,2.37177 -5.31397,8.13868 -1.32481,11.27655 1.4005,1.10164 5.788,2.72385 9.75,3.60493 22.72426,5.05346 30.35958,10.09559 32.17957,21.25041 1.65487,10.14283 -4.79321,20.28142 -15.54677,24.44483 -6.94875,2.69032 -21.91716,3.38809 -30.42917,1.41848 z m 141.74767,-0.45623 c -6.38952,-2.20733 -8.96312,-4.38545 -11.36694,-9.62023 -4.40141,-9.58492 -0.56557,-18.77912 9.63292,-23.08929 2.63969,-1.11561 7.9557,-1.85374 15.73635,-2.185 11.45993,-0.4879 11.75,-0.5572 11.75,-2.80721 0,-1.26884 -1.08704,-3.56957 -2.41564,-5.11274 -2.29177,-2.66188 -2.84302,-2.80437 -10.75,-2.77862 -6.72327,0.0219 -9.17465,0.47031 -12.68127,2.31976 -2.39079,1.26094 -4.45935,2.14873 -4.5968,1.97286 -0.13744,-0.17587 -1.5372,-2.7224 -3.11057,-5.65896 l -2.86067,-5.3392 2.45747,-1.90837 c 3.68125,-2.85869 11.491,-4.9977 20.50924,-5.61725 10.76802,-0.73977 18.00567,1.33312 24.02388,6.88051 6.56351,6.05003 7.42436,9.9929 7.42436,34.00501 v 19.8185 h -8 -8 v -3.06809 -3.0681 l -3.07242,2.18776 c -3.797,2.7037 -11.06316,4.95918 -15.83651,4.91578 -1.97509,-0.018 -5.95462,-0.84916 -8.8434,-1.84712 z m 19.03445,-11.48221 c 4.64083,-1.96426 6.96813,-5.02632 7.10175,-9.34388 l 0.11613,-3.75253 -8.8761,0.17335 c -7.66668,0.14972 -9.19956,0.47721 -11.25,2.4035 -2.67189,2.51012 -2.87151,3.6953 -1.22941,7.29932 1.90921,4.19026 8.36928,5.66172 14.13763,3.22024 z m 60.4638,12.33706 c -10.05525,-2.53257 -17.9786,-8.84452 -21.93634,-17.47508 -3.37896,-7.36843 -3.19483,-19.09606 0.40821,-26 3.33652,-6.39323 8.94116,-11.78459 15.28221,-14.70065 7.16338,-3.29422 21.86243,-3.24601 28.72068,0.0942 4.79935,2.33745 11.79295,9.09124 11.76268,11.35933 -0.009,0.68592 -2.75358,2.72185 -6.09872,4.52429 l -6.08208,3.27718 -3.78515,-3.41966 c -5.29798,-4.78641 -10.58457,-5.56937 -16.72692,-2.47731 -5.86493,2.95241 -8.29186,7.29477 -8.28675,14.82702 0.007,9.59917 6.01408,16.01096 14.99626,16.00527 4.721,-0.003 8.43377,-1.84295 11.63928,-5.76816 l 1.86072,-2.27849 6.78298,3.61289 6.78297,3.61289 -3.35009,4.6656 c -4.54894,6.33521 -11.8767,10.00417 -21.21586,10.62264 -3.85,0.25496 -8.68933,0.0381 -10.75408,-0.48196 z m 65.66079,-0.006 c -10.1248,-2.00734 -17.49642,-7.09206 -21.95775,-15.14578 -2.68475,-4.84635 -2.94896,-6.17444 -2.94896,-14.8233 0,-8.12776 0.35636,-10.19764 2.46709,-14.32977 2.96417,-5.80287 8.62459,-11.12821 14.91051,-14.02785 6.55164,-3.02221 20.69836,-3.03416 27.1224,-0.0229 10.3102,4.83289 16.31236,14.28784 16.42935,25.88053 l 0.0707,7 -22.21131,0.26903 c -20.56405,0.24907 -22.16605,0.3974 -21.60099,2 0.88356,2.5059 4.42226,6.22408 7.3123,7.68317 6.19372,3.127 15.46289,2.49057 20.98396,-1.44078 l 2.6875,-1.91367 4.78243,4.85543 c 2.74539,2.78731 4.48332,5.3394 4.08021,5.99165 -1.39355,2.2548 -8.65263,6.11146 -14.24464,7.56799 -6.15929,1.60429 -11.41655,1.7385 -17.88275,0.45651 z m 19.50193,-38.71908 c -4.33782,-11.44968 -20.74528,-12.20172 -26.42862,-1.21136 -0.81401,1.57412 -1.48002,3.10939 -1.48002,3.4117 0,0.30231 6.51386,0.54966 14.47525,0.54966 h 14.47525 z m 124.33495,38.2666 c -13.16604,-3.70426 -21.6816,-13.69249 -22.91261,-26.87513 -0.86238,-9.23505 1.44129,-16.13696 7.65552,-22.93632 7.18165,-7.85787 12.91641,-10.19672 25.0135,-10.20144 8.38973,-0.003 10.16785,0.32425 15.21444,2.80244 6.83647,3.35714 13.03973,10.05673 15.21046,16.42746 2.01086,5.90154 2.02077,16.60213 0.0208,22.47166 -4.85833,14.25843 -23.85433,22.91076 -40.20213,18.31133 z m 17.56455,-15.541 c 3.67021,-2.23766 7.13857,-8.76143 7.16432,-13.4756 0.0475,-8.69297 -5.28086,-15.70051 -12.91954,-16.99106 -5.54728,-0.93721 -12.6674,2.55659 -15.23447,7.47546 -2.5051,4.80012 -2.4187,13.51885 0.17615,17.77474 4.25598,6.98037 13.93965,9.40737 20.81354,5.21646 z m 36.19186,-13.9756 v -30 h 8 8 v 3 c 0,3.48027 0.98211,3.78224 3.4461,1.05956 2.27997,-2.51933 9.81467,-5.06106 14.98204,-5.05398 6.39153,0.009 11.37909,1.82547 15.68063,5.71166 l 3.96722,3.58414 2.71201,-2.53653 c 9.48974,-8.87572 26.78997,-8.90416 35.42383,-0.0582 6.08682,6.23633 6.78817,9.68919 6.78817,33.41911 v 20.87424 h -8.5 -8.5 l -0.006,-17.25 c -0.008,-24.73085 -1.44291,-28.25 -11.51884,-28.25 -4.24906,0 -5.83208,0.48629 -7.89654,2.42574 -3.82978,3.5979 -4.56731,7.843 -4.57346,26.32426 l -0.005,16.75 h -8.5 -8.5 v -16.55718 c 0,-23.54901 -1.50081,-28.02966 -9.75964,-29.13741 -4.98577,-0.66873 -9.6075,1.63241 -11.97343,5.96152 -1.46514,2.68086 -1.8232,6.35019 -2.09635,21.48307 l -0.32942,18.25 h -8.42058 -8.42058 z m -383.61287,-94.75 c 0.28704,-0.9625 1.90552,-7.28827 3.59661,-14.05727 11.07606,-44.33458 25.26752,-80.74152 36.08821,-92.58107 11.26053,-12.32082 27.46006,-18.22159 42.44442,-15.46061 3.56599,0.65706 6.48363,1.49564 6.48363,1.86351 0,0.36788 -1.70893,1.18087 -3.79761,1.80666 -9.28458,2.78173 -16.99466,10.20182 -22.16524,21.33161 -2.65796,5.72131 -11.78671,34.51073 -13.50139,42.57947 l -0.6869,3.23231 3.82557,-1.35974 c 10.88377,-3.86845 33.04025,-12.93963 39.27872,-16.08128 11.11762,-5.59874 18.50289,-14.51919 20.92073,-25.26951 l 0.84433,-3.75408 1.24396,3 c 6.39782,15.42931 1.75311,35.90122 -10.99256,48.45054 -9.39102,9.24635 -26.94945,18.7324 -57.46961,31.04832 -15.64841,6.31466 -44.64138,17.00114 -46.12499,17.00114 -0.28038,0 -0.27493,-0.7875 0.0121,-1.75 z M 504.3061,597.01523 c -5.35276,-1.78634 -6.12719,-5.68796 -2.94421,-14.83306 5.45786,-15.6811 8.50998,-36.74895 7.33867,-50.65655 l -0.65271,-7.75 h -3.73133 c -2.25788,0 -5.08645,-0.91961 -7.163,-2.3288 l -3.43168,-2.3288 -6.28111,5.68812 c -3.45461,3.12847 -8.20994,6.65143 -10.5674,7.8288 -5.44376,2.71875 -12.95128,2.83143 -17.06723,0.25616 -5.42529,-3.39449 -54.15211,-49.49817 -56.6589,-53.60874 -4.26627,-6.99574 -1.80731,-16.20469 7.58683,-28.41308 l 4.34863,-5.65137 -1.96865,-2.43119 c -1.52541,-1.8838 -1.89427,-3.60918 -1.63828,-7.66328 l 0.33037,-5.23209 -4.85227,-0.66577 c -8.44385,-1.15856 -26.82278,1.27185 -39.14773,5.17684 -2.75,0.8713 -8.92872,3.36547 -13.73049,5.5426 -7.96586,3.61174 -8.97102,3.84315 -11.47674,2.64219 -1.51043,-0.72393 -3.19704,-2.59807 -3.74801,-4.16475 -0.862,-2.45108 -0.44667,-3.91519 2.97674,-10.49364 6.63952,-12.75858 19.0647,-30.58315 27.61703,-39.6181 13.9294,-14.71545 26.57023,-22.92166 43.36147,-28.14952 8.09537,-2.52045 10.47542,-2.8063 23.67867,-2.84384 l 14.67866,-0.0417 1.58834,-2.68307 c 0.87358,-1.47569 5.24884,-7.77569 9.7228,-14 42.26935,-58.80644 91.28997,-99.69969 146.56796,-122.26772 25.73297,-10.50586 57.8472,-17.33129 83.97392,-17.84748 13.35336,-0.26383 13.78736,0.12346 15.38707,13.73089 1.47119,12.51429 0.61323,45.35955 -1.54292,59.06738 -7.08592,45.04917 -27.20284,90.6018 -57.74472,130.75676 -14.63898,19.2466 -44.77901,50.58998 -64.62185,67.20189 -6.72061,5.62631 -8.19517,7.34949 -7.70152,9 1.37296,4.59045 1.72886,22.64268 0.59876,30.37144 -2.84265,19.44099 -12.23812,37.90298 -27.42612,53.89199 -15.5699,16.39102 -40.58932,34.20938 -45.65905,32.51749 z m -27.63496,-80.81077 c 3.7148,-3.06414 6.61486,-5.92236 6.44457,-6.35159 -0.31841,-0.80259 -48.19188,-46.00533 -54.89318,-51.83082 l -3.74271,-3.25358 -2.97273,3.75358 c -4.06884,5.1376 -7.52047,11.97862 -6.88256,13.641 0.88993,2.31912 52.07851,49.55004 53.737,49.58231 0.85549,0.0166 4.59481,-2.47676 8.30961,-5.5409 z m 34.79543,-10.56589 c 18.65837,-10.51711 45.03556,-28.95946 64.33953,-44.98478 15.00443,-12.45602 44.74737,-42.67797 56.46876,-57.37817 19.87291,-24.92332 36.06883,-52.36121 46.35077,-78.52398 7.07778,-18.00968 7.51351,-15.69937 -4.48155,-23.76227 -27.28807,-18.34266 -53.28335,-43.26932 -66.92049,-64.16954 l -1.58251,-2.42534 -7.91749,3.75503 c -12.20021,5.7862 -32.23404,18.07078 -44.58373,27.33837 -48.29492,36.24201 -87.83683,86.36251 -120.50914,152.74877 l -8.38581,17.03896 7.7806,7.53055 c 12.09215,11.70355 71.26959,66.96945 71.70933,66.96945 0.21571,0 3.69498,-1.86167 7.73173,-4.13705 z m 6.32647,-67.60177 c -11.52053,-4.12147 -18.11541,-9.79353 -23.048,-19.82293 -9.31799,-18.94621 -1.15914,-41.52669 18.33629,-50.74762 6.00493,-2.8402 7.69042,-3.1812 15.7458,-3.18565 8.15709,-0.005 9.65156,0.30543 15.605,3.2363 20.91053,10.29422 28.15452,35.92041 15.69033,55.50574 -8.37037,13.15259 -28.03553,20.12779 -42.32942,15.01416 z m 19.79518,-13.60964 c 18.81892,-7.88612 19.65853,-35.71743 1.33491,-44.24938 -11.86827,-5.52617 -25.69752,-0.77156 -31.86453,10.95529 -2.99092,5.68737 -3.01576,15.56687 -0.0531,21.14255 2.66713,5.01958 7.74962,9.93985 12.30064,11.90806 4.38238,1.89526 14.03367,2.0238 18.28212,0.24348 z m 46.21788,-62.98778 c -14.15175,-4.64516 -24.30898,-18.00686 -25.28828,-33.26636 -1.49252,-23.25668 16.56627,-41.53556 39.71171,-40.19569 13.81276,0.79961 25.43873,8.63459 31.63592,21.3201 2.63172,5.38708 2.92149,6.96849 2.93057,15.99357 0.009,9.30686 -0.222,10.48719 -3.27049,16.68482 -3.69481,7.51158 -10.50518,14.3028 -17.98879,17.93818 -5.77445,2.80511 -21.24009,3.65583 -27.73064,1.52538 z m 19.75203,-13.09051 c 16.32397,-5.82545 21.36704,-26.88184 9.44729,-39.44536 -4.56766,-4.81435 -10.0781,-7.08397 -17.19932,-7.08397 -7.6695,0 -13.024,2.41378 -17.84274,8.0434 -5.13055,5.99389 -7.22459,13.3793 -5.65209,19.93421 1.38798,5.78579 5.95324,13.06597 9.75578,15.55749 6.31492,4.1377 14.92528,5.33733 21.49108,2.99423 z m 87.56701,-65.82325 c 1.18462,-6.1875 2.67237,-15.3 3.30613,-20.25 1.25814,-9.82686 1.63633,-47.07183 0.48961,-48.21855 -0.96497,-0.96498 -28.8364,2.26196 -40.69751,4.71193 -8.5855,1.77338 -22.77883,5.82019 -31.66727,9.02899 -1.7875,0.64531 -3.25,1.61344 -3.25,2.15141 0,3.74677 24.76175,30.25824 40.32394,43.17332 9.2421,7.67003 27.28208,20.6529 28.69766,20.6529 0.35397,0 1.61282,-5.0625 2.79744,-11.25 z"
       id="path1" />
  </g>
</svg>
